<svg xmlns="http://www.w3.org/2000/svg" width="38" height="38" fill="none"><path fill="#3DDC84" d="M0 12.67c0-4.44 0-6.65.86-8.35A7.92 7.92 0 0 1 4.32.86C6.02 0 8.23 0 12.67 0h12.66c4.44 0 6.65 0 8.35.86a7.92 7.92 0 0 1 3.46 3.46c.86 1.7.86 3.91.86 8.35v12.66c0 4.44 0 6.65-.86 8.35a7.92 7.92 0 0 1-3.46 3.46c-1.7.86-3.91.86-8.35.86H12.67c-4.44 0-6.65 0-8.35-.86a7.92 7.92 0 0 1-3.46-3.46C0 31.98 0 29.77 0 25.33V12.67Z"/><circle cx="19" cy="19" r="11" fill="#fff"/><path fill="#3DDC84" fill-rule="evenodd" d="M15.15 19a3.85 3.85 0 1 0 7.7 0H25a6 6 0 0 1-12 0h2.15Z" clip-rule="evenodd"/></svg>